<?xml version="1.0" encoding="utf-8"?>
<!-- Generator: Adobe Illustrator 18.0.0, SVG Export Plug-In . SVG Version: 6.00 Build 0)  -->
<!DOCTYPE svg PUBLIC "-//W3C//DTD SVG 1.1//EN" "http://www.w3.org/Graphics/SVG/1.1/DTD/svg11.dtd">
<svg version="1.1" id="ART_copy" xmlns="http://www.w3.org/2000/svg" xmlns:xlink="http://www.w3.org/1999/xlink" x="0px" y="0px"
	 viewBox="0 0 150 152.9" enable-background="new 0 0 150 152.9" xml:space="preserve">
<g>
	<g>
		<path fill="#939598" d="M149.8,26.7c0.8,3.3-0.7,6.4-4.4,9.2c-3.1,2.2-6.2,4.4-9.1,6.5l-31.4,37l34.6,44.7c1.8,1.7,3.6,3.4,5.4,5
			c2.5,2.3,3.7,4.4,3.7,6.3c0,1.2-0.5,2.3-1.5,3.5c-1.3,1.6-6.1,4.1-14.3,7.6c-7.6,3.5-12.5,5.4-14.8,5.9c-4.8,0-7.8-1.9-8.9-5.7
			c-2-6.4-10.6-19.8-25.9-40.3l-21.7,31.4c-0.8,2.8-1.6,5.4-2.2,8.1c-1.3,4.2-3.5,6.5-6.7,7c-3.1,0.4-9.4-0.8-18.8-3.7
			c-9.9-3.1-15.7-5.8-17.5-8.3c-0.7-0.9-1-1.7-1-2.6c0-1.9,1.6-4.1,4.7-6.8c4.1-3.8,6.3-5.8,6.4-6.1l33.6-45.1L29.5,38.5
			c-2.3-1.3-4.7-3.6-7.2-6.8c-0.2-1.7,4-5,12.4-9.8C43,17.1,49,14.5,52.4,14c3.1-0.4,5.2,0.2,6.3,2c1.1,1.7,2,3.6,2.8,5.4l21.5,32.7
			l23.7-31.4c0.8-2,1.6-4,2.5-5.9c0.7-1.3,3.5-2.2,8.6-2.6c2.5-0.1,8.3,1.5,17.4,4.8C144.5,22.4,149.3,24.9,149.8,26.7z"/>
	</g>
</g>
<g>
	<g>
		<path fill="#D81F26" d="M139.5,17.6c0.8,3.3-0.7,6.4-4.4,9.2c-3.1,2.2-6.2,4.4-9.1,6.5l-31.4,37l34.6,44.7c1.8,1.7,3.6,3.4,5.4,5
			c2.5,2.3,3.7,4.4,3.7,6.3c0,1.2-0.5,2.3-1.5,3.5c-1.3,1.6-6.1,4.1-14.3,7.6c-7.6,3.5-12.5,5.4-14.8,5.9c-4.8,0-7.8-1.9-8.9-5.7
			c-2-6.4-10.6-19.8-25.9-40.3L51,128.7c-0.8,2.8-1.6,5.4-2.2,8.1c-1.3,4.2-3.5,6.5-6.7,7c-3.1,0.4-9.4-0.8-18.8-3.7
			c-9.9-3.1-15.7-5.8-17.5-8.3c-0.7-0.9-1-1.7-1-2.6c0-1.9,1.6-4.1,4.7-6.8c4.1-3.8,6.3-5.8,6.4-6.1l33.6-45.1L19.2,29.4
			c-2.3-1.3-4.7-3.6-7.2-6.8c-0.2-1.7,4-5,12.4-9.8C32.8,8,38.7,5.4,42.1,5c3.1-0.4,5.2,0.2,6.3,2c1.1,1.7,2,3.6,2.8,5.4l21.5,32.7
			l23.7-31.4c0.8-2,1.6-4,2.5-5.9c0.7-1.3,3.5-2.2,8.6-2.6c2.5-0.1,8.3,1.5,17.4,4.8C134.2,13.3,139,15.9,139.5,17.6z"/>
		<path d="M43.9,4.8c2.2,0,3.7,0.7,4.6,2.1c1.1,1.7,2,3.6,2.8,5.4l21.5,32.7l23.7-31.4c0.8-2,1.6-4,2.5-5.9c0.7-1.3,3.5-2.2,8.6-2.6
			c0.1,0,0.2,0,0.3,0c2.6,0,8.3,1.6,17.1,4.8c9.1,3.3,14,5.9,14.5,7.6c0.8,3.3-0.7,6.4-4.4,9.2c-3.1,2.2-6.2,4.4-9.1,6.5l-31.4,37
			l34.6,44.7c1.8,1.7,3.6,3.4,5.4,5c2.5,2.3,3.7,4.4,3.7,6.3c0,1.2-0.5,2.3-1.5,3.5c-1.3,1.6-6.1,4.1-14.3,7.6
			c-7.6,3.5-12.5,5.4-14.8,5.9c-4.8,0-7.8-1.9-8.9-5.7c-2-6.4-10.6-19.8-25.9-40.3L51,128.7c-0.8,2.8-1.6,5.4-2.2,8.1
			c-1.3,4.2-3.5,6.5-6.7,7c-0.4,0.1-0.9,0.1-1.4,0.1c-3.4,0-9.2-1.3-17.4-3.8c-9.9-3.1-15.7-5.8-17.5-8.3c-0.7-0.9-1-1.7-1-2.6
			c0-1.9,1.6-4.1,4.7-6.8c4.1-3.8,6.3-5.8,6.4-6.1l33.6-45.1L19.2,29.4c-2.3-1.3-4.7-3.6-7.2-6.8c-0.2-1.7,4-5,12.4-9.8
			C32.8,8,38.7,5.4,42.1,5C42.8,4.9,43.3,4.8,43.9,4.8 M43.9,0c-0.7,0-1.6,0.1-2.4,0.2C37.3,0.7,31.1,3.4,22,8.6
			C10.4,15.2,6.8,18.7,7.2,23.1l0.1,1.4l0.9,1.1c2.6,3.3,5.1,5.8,7.6,7.4l27.7,38.2l-31.4,42.2c-0.3,0.4-1.5,1.5-5.9,5.5
			C3.7,121,0,124.6,0,129.2c0,1.9,0.7,3.8,1.9,5.5c1.7,2.3,5.5,5.5,20,10c8.7,2.7,14.9,4,18.8,4c0.8,0,1.5,0,2.1-0.1
			c3.5-0.5,8.2-2.7,10.6-10.3c0.7-2.6,1.3-5,2-7.4l17.5-25.2c15.4,20.9,20,29.7,21.2,33.4c1,3.4,4.2,9.1,13.5,9.1h0.5l0.4-0.1
			c1.7-0.3,5.3-1.3,15.9-6.2c11.7-4.9,14.6-7.2,16-8.9c1.7-2,2.6-4.2,2.6-6.6c0-3.3-1.7-6.5-5.2-9.8c-1.8-1.6-3.5-3.1-5.2-4.7
			l-32-41.3l28.5-33.6c2.8-2,5.6-4.1,8.6-6.1c7.3-5.3,7.1-11.2,6.4-14.3c-1-3.4-4-6.1-17.5-11c-12.4-4.5-16.5-5.1-18.7-5.1h-0.1
			l-0.5,0c-5.5,0.5-10.8,1.4-12.7,5.3c-0.9,1.9-1.6,3.8-2.4,5.6L73.1,36.7L55.5,10.1c-0.9-2-1.9-3.8-3-5.6C51.5,2.7,49.1,0,43.9,0
			L43.9,0z"/>
	</g>
</g>
</svg>
